<svg xmlns="http://www.w3.org/2000/svg" xmlns:xlink="http://www.w3.org/1999/xlink" width="500" zoomAndPan="magnify" viewBox="0 0 375 374.999991" height="500" preserveAspectRatio="xMidYMid meet" version="1.0"><defs><g/><clipPath id="e8b0afa3b0"><path d="M 22.5 0 L 352.5 0 C 358.46875 0 364.191406 2.371094 368.410156 6.589844 C 372.628906 10.808594 375 16.53125 375 22.5 L 375 352.5 C 375 358.46875 372.628906 364.191406 368.410156 368.410156 C 364.191406 372.628906 358.46875 375 352.5 375 L 22.5 375 C 10.074219 375 0 364.925781 0 352.5 L 0 22.5 C 0 10.074219 10.074219 0 22.5 0 Z M 22.5 0 " clip-rule="nonzero"/></clipPath><linearGradient x1="0" gradientTransform="matrix(1.464844, 0, 0, 1.464844, 0.0000045, 0)" y1="0" x2="255.999988" gradientUnits="userSpaceOnUse" y2="255.999988" id="df6305c1bb"><stop stop-opacity="1" stop-color="rgb(0%, 0%, 0%)" offset="0"/><stop stop-opacity="1" stop-color="rgb(0.143433%, 0.0350952%, 0.360107%)" offset="0.00390625"/><stop stop-opacity="1" stop-color="rgb(0.286865%, 0.0701904%, 0.720215%)" offset="0.0078125"/><stop stop-opacity="1" stop-color="rgb(0.430298%, 0.105286%, 1.080322%)" offset="0.0117188"/><stop stop-opacity="1" stop-color="rgb(0.575256%, 0.140381%, 1.44043%)" offset="0.015625"/><stop stop-opacity="1" stop-color="rgb(0.718689%, 0.175476%, 1.800537%)" offset="0.0195313"/><stop stop-opacity="1" stop-color="rgb(0.863647%, 0.210571%, 2.160645%)" offset="0.0234375"/><stop stop-opacity="1" stop-color="rgb(1.00708%, 0.245667%, 2.520752%)" offset="0.0273438"/><stop stop-opacity="1" stop-color="rgb(1.152039%, 0.280762%, 2.880859%)" offset="0.03125"/><stop stop-opacity="1" stop-color="rgb(1.295471%, 0.315857%, 3.240967%)" offset="0.0351562"/><stop stop-opacity="1" stop-color="rgb(1.44043%, 0.350952%, 3.601074%)" offset="0.0390625"/><stop stop-opacity="1" stop-color="rgb(1.583862%, 0.386047%, 3.961182%)" offset="0.0429688"/><stop stop-opacity="1" stop-color="rgb(1.728821%, 0.421143%, 4.321289%)" offset="0.046875"/><stop stop-opacity="1" stop-color="rgb(1.872253%, 0.456238%, 4.681396%)" offset="0.0507812"/><stop stop-opacity="1" stop-color="rgb(2.017212%, 0.491333%, 5.041504%)" offset="0.0546875"/><stop stop-opacity="1" stop-color="rgb(2.160645%, 0.526428%, 5.401611%)" offset="0.0585938"/><stop stop-opacity="1" stop-color="rgb(2.305603%, 0.561523%, 5.761719%)" offset="0.0625"/><stop stop-opacity="1" stop-color="rgb(2.449036%, 0.596619%, 6.121826%)" offset="0.0664062"/><stop stop-opacity="1" stop-color="rgb(2.593994%, 0.631714%, 6.481934%)" offset="0.0703125"/><stop stop-opacity="1" stop-color="rgb(2.737427%, 0.666809%, 6.842041%)" offset="0.0742188"/><stop stop-opacity="1" stop-color="rgb(2.882385%, 0.701904%, 7.202148%)" offset="0.078125"/><stop stop-opacity="1" stop-color="rgb(3.025818%, 0.737%, 7.562256%)" offset="0.0820312"/><stop stop-opacity="1" stop-color="rgb(3.170776%, 0.772095%, 7.922363%)" offset="0.0859375"/><stop stop-opacity="1" stop-color="rgb(3.314209%, 0.80719%, 8.282471%)" offset="0.0898438"/><stop stop-opacity="1" stop-color="rgb(3.459167%, 0.842285%, 8.642578%)" offset="0.09375"/><stop stop-opacity="1" stop-color="rgb(3.6026%, 0.87738%, 9.002686%)" offset="0.0976562"/><stop stop-opacity="1" stop-color="rgb(3.747559%, 0.914001%, 9.362793%)" offset="0.101562"/><stop stop-opacity="1" stop-color="rgb(3.890991%, 0.949097%, 9.7229%)" offset="0.105469"/><stop stop-opacity="1" stop-color="rgb(4.034424%, 0.984192%, 10.083008%)" offset="0.109375"/><stop stop-opacity="1" stop-color="rgb(4.177856%, 1.019287%, 10.443115%)" offset="0.113281"/><stop stop-opacity="1" stop-color="rgb(4.322815%, 1.054382%, 10.803223%)" offset="0.117188"/><stop stop-opacity="1" stop-color="rgb(4.466248%, 1.089478%, 11.16333%)" offset="0.121094"/><stop stop-opacity="1" stop-color="rgb(4.611206%, 1.124573%, 11.524963%)" offset="0.125"/><stop stop-opacity="1" stop-color="rgb(4.754639%, 1.159668%, 11.885071%)" offset="0.128906"/><stop stop-opacity="1" stop-color="rgb(4.899597%, 1.194763%, 12.245178%)" offset="0.132812"/><stop stop-opacity="1" stop-color="rgb(5.04303%, 1.229858%, 12.605286%)" offset="0.136719"/><stop stop-opacity="1" stop-color="rgb(5.187988%, 1.264954%, 12.965393%)" offset="0.140625"/><stop stop-opacity="1" stop-color="rgb(5.331421%, 1.300049%, 13.3255%)" offset="0.144531"/><stop stop-opacity="1" stop-color="rgb(5.476379%, 1.335144%, 13.685608%)" offset="0.148438"/><stop stop-opacity="1" stop-color="rgb(5.619812%, 1.370239%, 14.045715%)" offset="0.152344"/><stop stop-opacity="1" stop-color="rgb(5.764771%, 1.405334%, 14.405823%)" offset="0.15625"/><stop stop-opacity="1" stop-color="rgb(5.908203%, 1.44043%, 14.76593%)" offset="0.160156"/><stop stop-opacity="1" stop-color="rgb(6.053162%, 1.475525%, 15.126038%)" offset="0.164062"/><stop stop-opacity="1" stop-color="rgb(6.196594%, 1.51062%, 15.486145%)" offset="0.167969"/><stop stop-opacity="1" stop-color="rgb(6.341553%, 1.545715%, 15.846252%)" offset="0.171875"/><stop stop-opacity="1" stop-color="rgb(6.484985%, 1.580811%, 16.20636%)" offset="0.175781"/><stop stop-opacity="1" stop-color="rgb(6.629944%, 1.615906%, 16.566467%)" offset="0.179688"/><stop stop-opacity="1" stop-color="rgb(6.773376%, 1.651001%, 16.926575%)" offset="0.183594"/><stop stop-opacity="1" stop-color="rgb(6.918335%, 1.686096%, 17.286682%)" offset="0.1875"/><stop stop-opacity="1" stop-color="rgb(7.061768%, 1.721191%, 17.64679%)" offset="0.191406"/><stop stop-opacity="1" stop-color="rgb(7.206726%, 1.756287%, 18.006897%)" offset="0.195312"/><stop stop-opacity="1" stop-color="rgb(7.350159%, 1.791382%, 18.367004%)" offset="0.199219"/><stop stop-opacity="1" stop-color="rgb(7.495117%, 1.828003%, 18.727112%)" offset="0.203125"/><stop stop-opacity="1" stop-color="rgb(7.63855%, 1.863098%, 19.087219%)" offset="0.207031"/><stop stop-opacity="1" stop-color="rgb(7.783508%, 1.898193%, 19.447327%)" offset="0.210938"/><stop stop-opacity="1" stop-color="rgb(7.926941%, 1.933289%, 19.807434%)" offset="0.214844"/><stop stop-opacity="1" stop-color="rgb(8.070374%, 1.968384%, 20.167542%)" offset="0.21875"/><stop stop-opacity="1" stop-color="rgb(8.213806%, 2.003479%, 20.527649%)" offset="0.222656"/><stop stop-opacity="1" stop-color="rgb(8.358765%, 2.038574%, 20.887756%)" offset="0.226562"/><stop stop-opacity="1" stop-color="rgb(8.502197%, 2.073669%, 21.247864%)" offset="0.230469"/><stop stop-opacity="1" stop-color="rgb(8.647156%, 2.108765%, 21.607971%)" offset="0.234375"/><stop stop-opacity="1" stop-color="rgb(8.790588%, 2.14386%, 21.968079%)" offset="0.238281"/><stop stop-opacity="1" stop-color="rgb(8.935547%, 2.178955%, 22.328186%)" offset="0.242188"/><stop stop-opacity="1" stop-color="rgb(9.078979%, 2.21405%, 22.688293%)" offset="0.246094"/><stop stop-opacity="1" stop-color="rgb(9.223938%, 2.249146%, 23.049927%)" offset="0.25"/><stop stop-opacity="1" stop-color="rgb(9.367371%, 2.284241%, 23.410034%)" offset="0.253906"/><stop stop-opacity="1" stop-color="rgb(9.512329%, 2.319336%, 23.770142%)" offset="0.257812"/><stop stop-opacity="1" stop-color="rgb(9.655762%, 2.354431%, 24.130249%)" offset="0.261719"/><stop stop-opacity="1" stop-color="rgb(9.80072%, 2.389526%, 24.490356%)" offset="0.265625"/><stop stop-opacity="1" stop-color="rgb(9.944153%, 2.424622%, 24.850464%)" offset="0.269531"/><stop stop-opacity="1" stop-color="rgb(10.089111%, 2.459717%, 25.210571%)" offset="0.273438"/><stop stop-opacity="1" stop-color="rgb(10.232544%, 2.494812%, 25.570679%)" offset="0.277344"/><stop stop-opacity="1" stop-color="rgb(10.377502%, 2.529907%, 25.930786%)" offset="0.28125"/><stop stop-opacity="1" stop-color="rgb(10.520935%, 2.565002%, 26.290894%)" offset="0.285156"/><stop stop-opacity="1" stop-color="rgb(10.665894%, 2.600098%, 26.651001%)" offset="0.289063"/><stop stop-opacity="1" stop-color="rgb(10.809326%, 2.635193%, 27.011108%)" offset="0.292969"/><stop stop-opacity="1" stop-color="rgb(10.954285%, 2.671814%, 27.371216%)" offset="0.296875"/><stop stop-opacity="1" stop-color="rgb(11.097717%, 2.706909%, 27.731323%)" offset="0.300781"/><stop stop-opacity="1" stop-color="rgb(11.242676%, 2.742004%, 28.091431%)" offset="0.304688"/><stop stop-opacity="1" stop-color="rgb(11.386108%, 2.7771%, 28.451538%)" offset="0.308594"/><stop stop-opacity="1" stop-color="rgb(11.531067%, 2.812195%, 28.811646%)" offset="0.3125"/><stop stop-opacity="1" stop-color="rgb(11.6745%, 2.84729%, 29.171753%)" offset="0.316406"/><stop stop-opacity="1" stop-color="rgb(11.819458%, 2.882385%, 29.53186%)" offset="0.320312"/><stop stop-opacity="1" stop-color="rgb(11.962891%, 2.91748%, 29.891968%)" offset="0.324219"/><stop stop-opacity="1" stop-color="rgb(12.106323%, 2.952576%, 30.252075%)" offset="0.328125"/><stop stop-opacity="1" stop-color="rgb(12.249756%, 2.987671%, 30.612183%)" offset="0.332031"/><stop stop-opacity="1" stop-color="rgb(12.394714%, 3.022766%, 30.97229%)" offset="0.335938"/><stop stop-opacity="1" stop-color="rgb(12.538147%, 3.057861%, 31.332397%)" offset="0.339844"/><stop stop-opacity="1" stop-color="rgb(12.683105%, 3.092957%, 31.692505%)" offset="0.34375"/><stop stop-opacity="1" stop-color="rgb(12.826538%, 3.128052%, 32.052612%)" offset="0.347656"/><stop stop-opacity="1" stop-color="rgb(12.971497%, 3.163147%, 32.41272%)" offset="0.351562"/><stop stop-opacity="1" stop-color="rgb(13.114929%, 3.198242%, 32.772827%)" offset="0.355469"/><stop stop-opacity="1" stop-color="rgb(13.259888%, 3.233337%, 33.132935%)" offset="0.359375"/><stop stop-opacity="1" stop-color="rgb(13.40332%, 3.268433%, 33.493042%)" offset="0.363281"/><stop stop-opacity="1" stop-color="rgb(13.548279%, 3.303528%, 33.854675%)" offset="0.367188"/><stop stop-opacity="1" stop-color="rgb(13.691711%, 3.338623%, 34.214783%)" offset="0.371094"/><stop stop-opacity="1" stop-color="rgb(13.83667%, 3.373718%, 34.57489%)" offset="0.375"/><stop stop-opacity="1" stop-color="rgb(13.980103%, 3.408813%, 34.934998%)" offset="0.378906"/><stop stop-opacity="1" stop-color="rgb(14.125061%, 3.443909%, 35.295105%)" offset="0.382812"/><stop stop-opacity="1" stop-color="rgb(14.268494%, 3.479004%, 35.655212%)" offset="0.386719"/><stop stop-opacity="1" stop-color="rgb(14.413452%, 3.514099%, 36.01532%)" offset="0.390625"/><stop stop-opacity="1" stop-color="rgb(14.556885%, 3.549194%, 36.375427%)" offset="0.394531"/><stop stop-opacity="1" stop-color="rgb(14.701843%, 3.585815%, 36.735535%)" offset="0.398438"/><stop stop-opacity="1" stop-color="rgb(14.845276%, 3.620911%, 37.095642%)" offset="0.402344"/><stop stop-opacity="1" stop-color="rgb(14.990234%, 3.656006%, 37.45575%)" offset="0.40625"/><stop stop-opacity="1" stop-color="rgb(15.133667%, 3.691101%, 37.815857%)" offset="0.410156"/><stop stop-opacity="1" stop-color="rgb(15.278625%, 3.726196%, 38.175964%)" offset="0.414062"/><stop stop-opacity="1" stop-color="rgb(15.422058%, 3.761292%, 38.536072%)" offset="0.417969"/><stop stop-opacity="1" stop-color="rgb(15.567017%, 3.796387%, 38.896179%)" offset="0.421875"/><stop stop-opacity="1" stop-color="rgb(15.710449%, 3.831482%, 39.256287%)" offset="0.425781"/><stop stop-opacity="1" stop-color="rgb(15.855408%, 3.866577%, 39.616394%)" offset="0.429688"/><stop stop-opacity="1" stop-color="rgb(15.99884%, 3.901672%, 39.976501%)" offset="0.433594"/><stop stop-opacity="1" stop-color="rgb(16.142273%, 3.936768%, 40.336609%)" offset="0.4375"/><stop stop-opacity="1" stop-color="rgb(16.285706%, 3.971863%, 40.696716%)" offset="0.441406"/><stop stop-opacity="1" stop-color="rgb(16.430664%, 4.006958%, 41.056824%)" offset="0.445312"/><stop stop-opacity="1" stop-color="rgb(16.574097%, 4.042053%, 41.416931%)" offset="0.449219"/><stop stop-opacity="1" stop-color="rgb(16.719055%, 4.077148%, 41.777039%)" offset="0.453125"/><stop stop-opacity="1" stop-color="rgb(16.862488%, 4.112244%, 42.137146%)" offset="0.457031"/><stop stop-opacity="1" stop-color="rgb(17.007446%, 4.147339%, 42.497253%)" offset="0.460938"/><stop stop-opacity="1" stop-color="rgb(17.150879%, 4.182434%, 42.857361%)" offset="0.464844"/><stop stop-opacity="1" stop-color="rgb(17.295837%, 4.217529%, 43.217468%)" offset="0.46875"/><stop stop-opacity="1" stop-color="rgb(17.43927%, 4.252625%, 43.577576%)" offset="0.472656"/><stop stop-opacity="1" stop-color="rgb(17.584229%, 4.28772%, 43.937683%)" offset="0.476562"/><stop stop-opacity="1" stop-color="rgb(17.727661%, 4.322815%, 44.297791%)" offset="0.480469"/><stop stop-opacity="1" stop-color="rgb(17.87262%, 4.35791%, 44.657898%)" offset="0.484375"/><stop stop-opacity="1" stop-color="rgb(18.016052%, 4.393005%, 45.018005%)" offset="0.488281"/><stop stop-opacity="1" stop-color="rgb(18.161011%, 4.429626%, 45.379639%)" offset="0.492188"/><stop stop-opacity="1" stop-color="rgb(18.304443%, 4.464722%, 45.739746%)" offset="0.496094"/><stop stop-opacity="1" stop-color="rgb(18.449402%, 4.499817%, 46.099854%)" offset="0.5"/><stop stop-opacity="1" stop-color="rgb(18.592834%, 4.534912%, 46.459961%)" offset="0.503906"/><stop stop-opacity="1" stop-color="rgb(18.737793%, 4.570007%, 46.820068%)" offset="0.507812"/><stop stop-opacity="1" stop-color="rgb(18.881226%, 4.605103%, 47.180176%)" offset="0.511719"/><stop stop-opacity="1" stop-color="rgb(19.026184%, 4.640198%, 47.540283%)" offset="0.515625"/><stop stop-opacity="1" stop-color="rgb(19.169617%, 4.675293%, 47.900391%)" offset="0.519531"/><stop stop-opacity="1" stop-color="rgb(19.314575%, 4.710388%, 48.260498%)" offset="0.523438"/><stop stop-opacity="1" stop-color="rgb(19.458008%, 4.745483%, 48.620605%)" offset="0.527344"/><stop stop-opacity="1" stop-color="rgb(19.602966%, 4.780579%, 48.980713%)" offset="0.53125"/><stop stop-opacity="1" stop-color="rgb(19.746399%, 4.815674%, 49.34082%)" offset="0.535156"/><stop stop-opacity="1" stop-color="rgb(19.891357%, 4.850769%, 49.700928%)" offset="0.539062"/><stop stop-opacity="1" stop-color="rgb(20.03479%, 4.885864%, 50.061035%)" offset="0.542969"/><stop stop-opacity="1" stop-color="rgb(20.178223%, 4.920959%, 50.421143%)" offset="0.546875"/><stop stop-opacity="1" stop-color="rgb(20.321655%, 4.956055%, 50.78125%)" offset="0.550781"/><stop stop-opacity="1" stop-color="rgb(20.466614%, 4.99115%, 51.141357%)" offset="0.554688"/><stop stop-opacity="1" stop-color="rgb(20.610046%, 5.026245%, 51.501465%)" offset="0.558594"/><stop stop-opacity="1" stop-color="rgb(20.755005%, 5.06134%, 51.861572%)" offset="0.5625"/><stop stop-opacity="1" stop-color="rgb(20.898438%, 5.096436%, 52.22168%)" offset="0.566406"/><stop stop-opacity="1" stop-color="rgb(21.043396%, 5.131531%, 52.581787%)" offset="0.570312"/><stop stop-opacity="1" stop-color="rgb(21.186829%, 5.166626%, 52.941895%)" offset="0.574219"/><stop stop-opacity="1" stop-color="rgb(21.331787%, 5.201721%, 53.302002%)" offset="0.578125"/><stop stop-opacity="1" stop-color="rgb(21.47522%, 5.236816%, 53.662109%)" offset="0.582031"/><stop stop-opacity="1" stop-color="rgb(21.620178%, 5.271912%, 54.022217%)" offset="0.585938"/><stop stop-opacity="1" stop-color="rgb(21.763611%, 5.307007%, 54.382324%)" offset="0.589844"/><stop stop-opacity="1" stop-color="rgb(21.908569%, 5.343628%, 54.742432%)" offset="0.59375"/><stop stop-opacity="1" stop-color="rgb(22.052002%, 5.378723%, 55.102539%)" offset="0.597656"/><stop stop-opacity="1" stop-color="rgb(22.19696%, 5.413818%, 55.462646%)" offset="0.601563"/><stop stop-opacity="1" stop-color="rgb(22.340393%, 5.448914%, 55.822754%)" offset="0.605469"/><stop stop-opacity="1" stop-color="rgb(22.485352%, 5.484009%, 56.182861%)" offset="0.609375"/><stop stop-opacity="1" stop-color="rgb(22.628784%, 5.519104%, 56.542969%)" offset="0.613281"/><stop stop-opacity="1" stop-color="rgb(22.773743%, 5.554199%, 56.904602%)" offset="0.617188"/><stop stop-opacity="1" stop-color="rgb(22.917175%, 5.589294%, 57.264709%)" offset="0.621094"/><stop stop-opacity="1" stop-color="rgb(23.062134%, 5.62439%, 57.624817%)" offset="0.625"/><stop stop-opacity="1" stop-color="rgb(23.205566%, 5.659485%, 57.984924%)" offset="0.628906"/><stop stop-opacity="1" stop-color="rgb(23.350525%, 5.69458%, 58.345032%)" offset="0.632812"/><stop stop-opacity="1" stop-color="rgb(23.493958%, 5.729675%, 58.705139%)" offset="0.636719"/><stop stop-opacity="1" stop-color="rgb(23.638916%, 5.764771%, 59.065247%)" offset="0.640625"/><stop stop-opacity="1" stop-color="rgb(23.782349%, 5.799866%, 59.425354%)" offset="0.644531"/><stop stop-opacity="1" stop-color="rgb(23.927307%, 5.834961%, 59.785461%)" offset="0.648438"/><stop stop-opacity="1" stop-color="rgb(24.07074%, 5.870056%, 60.145569%)" offset="0.652344"/><stop stop-opacity="1" stop-color="rgb(24.214172%, 5.905151%, 60.505676%)" offset="0.65625"/><stop stop-opacity="1" stop-color="rgb(24.357605%, 5.940247%, 60.865784%)" offset="0.660156"/><stop stop-opacity="1" stop-color="rgb(24.502563%, 5.975342%, 61.225891%)" offset="0.664063"/><stop stop-opacity="1" stop-color="rgb(24.645996%, 6.010437%, 61.585999%)" offset="0.667969"/><stop stop-opacity="1" stop-color="rgb(24.790955%, 6.045532%, 61.946106%)" offset="0.671875"/><stop stop-opacity="1" stop-color="rgb(24.934387%, 6.080627%, 62.306213%)" offset="0.675781"/><stop stop-opacity="1" stop-color="rgb(25.079346%, 6.115723%, 62.666321%)" offset="0.679688"/><stop stop-opacity="1" stop-color="rgb(25.222778%, 6.150818%, 63.026428%)" offset="0.683594"/><stop stop-opacity="1" stop-color="rgb(25.367737%, 6.187439%, 63.386536%)" offset="0.6875"/><stop stop-opacity="1" stop-color="rgb(25.511169%, 6.222534%, 63.746643%)" offset="0.691406"/><stop stop-opacity="1" stop-color="rgb(25.656128%, 6.257629%, 64.10675%)" offset="0.695313"/><stop stop-opacity="1" stop-color="rgb(25.799561%, 6.292725%, 64.466858%)" offset="0.699219"/><stop stop-opacity="1" stop-color="rgb(25.944519%, 6.32782%, 64.826965%)" offset="0.703125"/><stop stop-opacity="1" stop-color="rgb(26.087952%, 6.362915%, 65.187073%)" offset="0.707031"/><stop stop-opacity="1" stop-color="rgb(26.23291%, 6.39801%, 65.54718%)" offset="0.710938"/><stop stop-opacity="1" stop-color="rgb(26.376343%, 6.433105%, 65.907288%)" offset="0.714844"/><stop stop-opacity="1" stop-color="rgb(26.521301%, 6.468201%, 66.267395%)" offset="0.71875"/><stop stop-opacity="1" stop-color="rgb(26.664734%, 6.503296%, 66.627502%)" offset="0.722656"/><stop stop-opacity="1" stop-color="rgb(26.809692%, 6.538391%, 66.98761%)" offset="0.726562"/><stop stop-opacity="1" stop-color="rgb(26.953125%, 6.573486%, 67.347717%)" offset="0.730469"/><stop stop-opacity="1" stop-color="rgb(27.098083%, 6.608582%, 67.709351%)" offset="0.734375"/><stop stop-opacity="1" stop-color="rgb(27.241516%, 6.643677%, 68.069458%)" offset="0.738281"/><stop stop-opacity="1" stop-color="rgb(27.386475%, 6.678772%, 68.429565%)" offset="0.742188"/><stop stop-opacity="1" stop-color="rgb(27.529907%, 6.713867%, 68.789673%)" offset="0.746094"/><stop stop-opacity="1" stop-color="rgb(27.674866%, 6.748962%, 69.14978%)" offset="0.75"/><stop stop-opacity="1" stop-color="rgb(27.818298%, 6.784058%, 69.509888%)" offset="0.753906"/><stop stop-opacity="1" stop-color="rgb(27.963257%, 6.819153%, 69.869995%)" offset="0.757812"/><stop stop-opacity="1" stop-color="rgb(28.106689%, 6.854248%, 70.230103%)" offset="0.761719"/><stop stop-opacity="1" stop-color="rgb(28.250122%, 6.889343%, 70.59021%)" offset="0.765625"/><stop stop-opacity="1" stop-color="rgb(28.393555%, 6.924438%, 70.950317%)" offset="0.769531"/><stop stop-opacity="1" stop-color="rgb(28.538513%, 6.959534%, 71.310425%)" offset="0.773438"/><stop stop-opacity="1" stop-color="rgb(28.681946%, 6.994629%, 71.670532%)" offset="0.777344"/><stop stop-opacity="1" stop-color="rgb(28.826904%, 7.029724%, 72.03064%)" offset="0.78125"/><stop stop-opacity="1" stop-color="rgb(28.970337%, 7.064819%, 72.390747%)" offset="0.785156"/><stop stop-opacity="1" stop-color="rgb(29.115295%, 7.10144%, 72.750854%)" offset="0.789062"/><stop stop-opacity="1" stop-color="rgb(29.258728%, 7.136536%, 73.110962%)" offset="0.792969"/><stop stop-opacity="1" stop-color="rgb(29.403687%, 7.171631%, 73.471069%)" offset="0.796875"/><stop stop-opacity="1" stop-color="rgb(29.547119%, 7.206726%, 73.831177%)" offset="0.800781"/><stop stop-opacity="1" stop-color="rgb(29.692078%, 7.241821%, 74.191284%)" offset="0.804688"/><stop stop-opacity="1" stop-color="rgb(29.83551%, 7.276917%, 74.551392%)" offset="0.808594"/><stop stop-opacity="1" stop-color="rgb(29.980469%, 7.312012%, 74.911499%)" offset="0.8125"/><stop stop-opacity="1" stop-color="rgb(30.123901%, 7.347107%, 75.271606%)" offset="0.816406"/><stop stop-opacity="1" stop-color="rgb(30.26886%, 7.382202%, 75.631714%)" offset="0.820313"/><stop stop-opacity="1" stop-color="rgb(30.412292%, 7.417297%, 75.991821%)" offset="0.824219"/><stop stop-opacity="1" stop-color="rgb(30.557251%, 7.452393%, 76.351929%)" offset="0.828125"/><stop stop-opacity="1" stop-color="rgb(30.700684%, 7.487488%, 76.712036%)" offset="0.832031"/><stop stop-opacity="1" stop-color="rgb(30.845642%, 7.522583%, 77.072144%)" offset="0.835938"/><stop stop-opacity="1" stop-color="rgb(30.989075%, 7.557678%, 77.432251%)" offset="0.839844"/><stop stop-opacity="1" stop-color="rgb(31.134033%, 7.592773%, 77.792358%)" offset="0.84375"/><stop stop-opacity="1" stop-color="rgb(31.277466%, 7.627869%, 78.152466%)" offset="0.847656"/><stop stop-opacity="1" stop-color="rgb(31.422424%, 7.662964%, 78.512573%)" offset="0.851562"/><stop stop-opacity="1" stop-color="rgb(31.565857%, 7.698059%, 78.872681%)" offset="0.855469"/><stop stop-opacity="1" stop-color="rgb(31.710815%, 7.733154%, 79.234314%)" offset="0.859375"/><stop stop-opacity="1" stop-color="rgb(31.854248%, 7.76825%, 79.594421%)" offset="0.863281"/><stop stop-opacity="1" stop-color="rgb(31.999207%, 7.803345%, 79.954529%)" offset="0.867188"/><stop stop-opacity="1" stop-color="rgb(32.142639%, 7.83844%, 80.314636%)" offset="0.871094"/><stop stop-opacity="1" stop-color="rgb(32.286072%, 7.873535%, 80.674744%)" offset="0.875"/><stop stop-opacity="1" stop-color="rgb(32.429504%, 7.90863%, 81.034851%)" offset="0.878906"/><stop stop-opacity="1" stop-color="rgb(32.574463%, 7.945251%, 81.394958%)" offset="0.882812"/><stop stop-opacity="1" stop-color="rgb(32.717896%, 7.980347%, 81.755066%)" offset="0.886719"/><stop stop-opacity="1" stop-color="rgb(32.862854%, 8.015442%, 82.115173%)" offset="0.890625"/><stop stop-opacity="1" stop-color="rgb(33.006287%, 8.050537%, 82.475281%)" offset="0.894531"/><stop stop-opacity="1" stop-color="rgb(33.151245%, 8.085632%, 82.835388%)" offset="0.898438"/><stop stop-opacity="1" stop-color="rgb(33.294678%, 8.120728%, 83.195496%)" offset="0.902344"/><stop stop-opacity="1" stop-color="rgb(33.439636%, 8.155823%, 83.555603%)" offset="0.90625"/><stop stop-opacity="1" stop-color="rgb(33.583069%, 8.190918%, 83.91571%)" offset="0.910156"/><stop stop-opacity="1" stop-color="rgb(33.728027%, 8.226013%, 84.275818%)" offset="0.914062"/><stop stop-opacity="1" stop-color="rgb(33.87146%, 8.261108%, 84.635925%)" offset="0.917969"/><stop stop-opacity="1" stop-color="rgb(34.016418%, 8.296204%, 84.996033%)" offset="0.921875"/><stop stop-opacity="1" stop-color="rgb(34.159851%, 8.331299%, 85.35614%)" offset="0.925781"/><stop stop-opacity="1" stop-color="rgb(34.30481%, 8.366394%, 85.716248%)" offset="0.929688"/><stop stop-opacity="1" stop-color="rgb(34.448242%, 8.401489%, 86.076355%)" offset="0.933594"/><stop stop-opacity="1" stop-color="rgb(34.593201%, 8.436584%, 86.436462%)" offset="0.9375"/><stop stop-opacity="1" stop-color="rgb(34.736633%, 8.47168%, 86.79657%)" offset="0.941406"/><stop stop-opacity="1" stop-color="rgb(34.881592%, 8.506775%, 87.156677%)" offset="0.945312"/><stop stop-opacity="1" stop-color="rgb(35.025024%, 8.54187%, 87.516785%)" offset="0.949219"/><stop stop-opacity="1" stop-color="rgb(35.169983%, 8.576965%, 87.876892%)" offset="0.953125"/><stop stop-opacity="1" stop-color="rgb(35.313416%, 8.612061%, 88.237%)" offset="0.957031"/><stop stop-opacity="1" stop-color="rgb(35.458374%, 8.647156%, 88.597107%)" offset="0.960938"/><stop stop-opacity="1" stop-color="rgb(35.601807%, 8.682251%, 88.957214%)" offset="0.964844"/><stop stop-opacity="1" stop-color="rgb(35.746765%, 8.717346%, 89.317322%)" offset="0.96875"/><stop stop-opacity="1" stop-color="rgb(35.890198%, 8.752441%, 89.677429%)" offset="0.972656"/><stop stop-opacity="1" stop-color="rgb(36.03363%, 8.787537%, 90.037537%)" offset="0.976562"/><stop stop-opacity="1" stop-color="rgb(36.177063%, 8.822632%, 90.397644%)" offset="0.980469"/><stop stop-opacity="1" stop-color="rgb(36.322021%, 8.859253%, 90.759277%)" offset="0.984375"/><stop stop-opacity="1" stop-color="rgb(36.465454%, 8.894348%, 91.119385%)" offset="0.988281"/><stop stop-opacity="1" stop-color="rgb(36.610413%, 8.929443%, 91.479492%)" offset="0.992188"/><stop stop-opacity="1" stop-color="rgb(36.753845%, 8.964539%, 91.8396%)" offset="0.996094"/><stop stop-opacity="1" stop-color="rgb(36.898804%, 8.999634%, 92.199707%)" offset="1"/></linearGradient></defs><g clip-path="url(#e8b0afa3b0)"><rect x="-37.5" fill="url(#df6305c1bb)" width="450" y="-37.499999" height="449.999989"/></g><path fill="#ffffff" d="M 191.644531 55.117188 C 190.011719 57.183594 42.605469 312.851562 41.734375 315.082031 C 41.027344 316.875 48.695312 316.984375 193.386719 316.984375 C 277.175781 316.984375 345.742188 316.605469 345.742188 316.167969 C 345.6875 314.539062 195.070312 54.519531 193.929688 54.136719 C 193.277344 53.921875 192.242188 54.355469 191.644531 55.117188 Z M 241.34375 169.140625 L 288.648438 277.835938 L 312.847656 295.34375 C 326.167969 304.914062 337.042969 313.015625 337.042969 313.234375 C 337.042969 313.503906 321.761719 313.722656 303.058594 313.667969 L 269.074219 313.613281 L 256.894531 295.886719 C 241.941406 274.136719 243.574219 278 236.992188 247.601562 C 230.414062 216.992188 230.414062 220.742188 236.992188 213.238281 C 244.550781 204.59375 244.714844 204.15625 243.464844 196.164062 C 241.507812 183.660156 232.804688 169.628906 222.367188 162.125 C 220.246094 160.660156 220.300781 160.550781 223.183594 156.363281 C 228.238281 149.078125 226.390625 146.574219 221.171875 153.589844 C 219.484375 155.820312 218.015625 157.832031 217.851562 158.046875 C 217.691406 158.265625 215.894531 157.886719 213.9375 157.125 C 211.980469 156.363281 206.925781 154.949219 202.738281 153.96875 L 195.125 152.175781 L 194.796875 139.886719 C 194.417969 122.921875 191.972656 123.410156 191.535156 140.539062 L 191.265625 152.609375 L 186.640625 153.371094 C 184.140625 153.753906 179.140625 155.113281 175.605469 156.308594 L 169.132812 158.539062 L 167.449219 155.980469 C 164.023438 150.816406 162.28125 149.183594 161.03125 149.945312 C 160.160156 150.492188 160.8125 152.230469 163.152344 155.65625 L 166.523438 160.550781 L 163.96875 162.289062 C 154.070312 168.921875 145.535156 182.953125 143.359375 196.054688 L 142.054688 203.886719 L 148.90625 212.097656 L 155.703125 220.363281 L 150.101562 246.679688 C 143.414062 277.726562 144.828125 274.246094 129.875 296.160156 L 117.914062 313.613281 L 83.929688 313.667969 C 65.222656 313.722656 49.945312 313.503906 49.945312 313.234375 C 49.945312 312.960938 60.820312 304.859375 74.140625 295.234375 L 98.339844 277.726562 L 145.644531 169.03125 C 171.6875 109.21875 193.222656 60.335938 193.492188 60.335938 C 193.820312 60.390625 215.351562 109.328125 241.34375 169.140625 Z M 165 112.265625 C 162.390625 121.074219 156.464844 136.734375 155.921875 136.246094 C 154.179688 134.503906 157.988281 119.660156 162.011719 112.699219 C 167.558594 103.128906 167.71875 103.074219 165 112.265625 Z M 224.921875 112.863281 C 227.316406 117.214844 229.597656 122.976562 229.925781 125.640625 C 230.304688 128.304688 230.792969 131.949219 231.011719 133.742188 L 231.5 137.003906 L 229.761719 133.796875 C 228.347656 131.296875 219.59375 106.609375 219.59375 105.25 C 219.59375 103.835938 221.171875 106.066406 224.921875 112.863281 Z M 151.953125 139.179688 C 151.082031 147.011719 145.15625 164.683594 143.414062 164.738281 C 143.035156 164.738281 141.945312 162.019531 140.859375 158.699219 L 139.011719 152.71875 L 144.664062 142.660156 C 153.472656 127.109375 153.363281 127.164062 151.953125 139.179688 Z M 241.832031 142.171875 L 247.976562 152.828125 L 246.074219 158.753906 C 245.039062 162.070312 243.898438 164.738281 243.519531 164.738281 C 242.105469 164.738281 236.015625 147.664062 235.363281 141.898438 C 234.980469 138.582031 234.4375 134.449219 234.113281 132.65625 C 233.242188 127.980469 234.710938 129.828125 241.832031 142.171875 Z M 201.703125 157.234375 C 219.972656 160.550781 236.070312 176.046875 239.65625 193.71875 C 240.308594 196.816406 239.65625 196.4375 231.121094 188.0625 C 205.617188 163.214844 181.964844 163.160156 155.867188 187.84375 C 146.566406 196.65625 146.460938 196.707031 147.222656 193.011719 C 152.113281 169.304688 177.34375 152.773438 201.703125 157.234375 Z M 139.066406 163.921875 L 141.347656 170.71875 L 137.324219 179.691406 C 132.976562 189.53125 132.8125 189.585938 125.632812 186.539062 L 120.6875 184.421875 L 128.515625 170.773438 C 137.707031 154.675781 136.238281 155.65625 139.066406 163.921875 Z M 259.449219 172.675781 L 266.246094 184.421875 L 261.296875 186.539062 C 254.121094 189.640625 253.957031 189.53125 249.554688 179.582031 L 245.476562 170.445312 L 247.921875 163.703125 C 250.042969 157.992188 250.585938 157.234375 251.511719 158.917969 C 252.109375 160.058594 255.699219 166.203125 259.449219 172.675781 Z M 210.351562 177.1875 C 216.875 180.394531 230.902344 190.726562 230.035156 191.652344 C 229.871094 191.816406 226.117188 190.292969 221.660156 188.226562 C 202.246094 179.253906 184.738281 179.253906 165.328125 188.226562 C 155.105469 192.902344 154.722656 192.46875 163.261719 185.671875 C 180.824219 171.75 194.417969 169.304688 210.351562 177.1875 Z M 182.074219 189.3125 C 177.832031 197.46875 184.195312 207.148438 193.765625 207.148438 C 202.898438 207.148438 209.480469 194.695312 204.042969 187.84375 C 202.410156 185.726562 203.390625 185.507812 207.632812 186.867188 C 211.273438 188.0625 211.4375 188.390625 211.761719 193.828125 C 212.632812 209.160156 195.832031 218.730469 182.945312 210.195312 C 173.265625 203.777344 171.363281 187.355469 180.226562 186.269531 C 184.085938 185.78125 183.976562 185.671875 182.074219 189.3125 Z M 199.636719 187.953125 C 205.835938 193.335938 201.757812 203.886719 193.492188 203.886719 C 189.414062 203.886719 184.957031 199.917969 184.140625 195.511719 C 182.617188 187.683594 193.277344 182.515625 199.636719 187.953125 Z M 125.472656 190.238281 L 131.507812 192.902344 L 127.644531 201.875 C 125.523438 206.824219 123.621094 211.007812 123.460938 211.171875 C 122.859375 211.769531 103.230469 215.523438 103.230469 215.03125 C 103.230469 214.324219 118.675781 187.574219 119.109375 187.574219 C 119.328125 187.574219 122.207031 188.769531 125.472656 190.238281 Z M 275.871094 201.113281 C 285.113281 216.992188 284.789062 215.847656 279.675781 214.761719 C 277.449219 214.273438 272.824219 213.292969 269.453125 212.640625 L 263.308594 211.390625 L 259.285156 202.09375 C 257.113281 196.980469 255.480469 192.683594 255.699219 192.578125 C 256.242188 192.140625 266.84375 187.738281 267.441406 187.683594 C 267.769531 187.628906 271.574219 193.664062 275.871094 201.113281 Z M 171.417969 195.078125 C 171.742188 216.554688 199.582031 224.546875 211.710938 206.660156 C 214.589844 202.417969 215.242188 200.40625 215.242188 195.621094 C 215.242188 192.03125 215.734375 189.75 216.441406 189.75 C 218.453125 189.75 231.882812 197.253906 235.90625 200.625 L 239.710938 203.832031 L 236.449219 206.550781 C 212.46875 226.453125 179.085938 227.050781 152.550781 208.019531 C 145.96875 203.289062 147.058594 201.65625 162.171875 193.5 C 171.035156 188.714844 171.308594 188.769531 171.417969 195.078125 Z M 174.460938 222.972656 C 188.601562 227.972656 208.230469 225.90625 224.433594 217.804688 L 231.011719 214.542969 L 227.75 217.96875 C 208.5 238.46875 182.511719 239.5 162.226562 220.578125 L 155.976562 214.707031 L 162.5 217.914062 C 166.089844 219.65625 171.472656 221.9375 174.460938 222.972656 Z M 117.914062 224.277344 L 114.269531 232.703125 L 100.296875 239.394531 C 92.628906 243.089844 86.210938 245.917969 85.996094 245.699219 C 85.777344 245.539062 88.929688 239.5 93.0625 232.269531 L 100.511719 219.21875 L 108.667969 217.699219 C 122.804688 214.980469 122.152344 214.488281 117.914062 224.277344 Z M 278.261719 217.859375 L 286.417969 219.65625 L 293.761719 232.160156 C 302.785156 247.496094 302.839844 247.003906 293.269531 242.601562 C 271.683594 232.648438 272.933594 233.628906 268.964844 224.277344 C 264.777344 214.433594 264.289062 214.761719 278.261719 217.859375 Z M 234.21875 250.050781 C 240.800781 280.171875 238.789062 275.605469 257.546875 302.574219 L 265.324219 313.722656 L 250.585938 313.722656 L 240.582031 293.875 L 230.578125 274.03125 L 226.609375 250.8125 L 222.636719 227.59375 L 225.140625 224.984375 C 228.292969 221.613281 227.476562 219.328125 234.21875 250.050781 Z M 162.390625 225.527344 C 164.132812 227.429688 164.023438 228.898438 159.890625 251.898438 L 155.59375 276.3125 L 146.023438 294.964844 L 136.398438 313.667969 L 129.003906 313.722656 L 121.554688 313.722656 L 128.898438 303.121094 C 148.796875 274.355469 146.078125 280.390625 152.222656 251.734375 C 159.183594 219.492188 158.476562 221.230469 162.390625 225.527344 Z M 171.144531 231.453125 C 175.167969 234.390625 169.949219 268.375 161.628906 293.332031 L 154.886719 313.722656 L 140.042969 313.722656 L 149.394531 295.5625 L 158.695312 277.402344 L 162.554688 255.597656 C 167.609375 227.050781 167.121094 228.519531 171.144531 231.453125 Z M 220.082031 232.433594 C 220.410156 233.792969 222.3125 244.503906 224.378906 256.25 L 228.128906 277.5625 L 237.535156 295.671875 L 246.945312 313.722656 L 232.046875 313.722656 L 225.355469 293.875 C 217.09375 269.351562 211.761719 234.445312 215.789062 231.453125 C 218.613281 229.386719 219.484375 229.605469 220.082031 232.433594 Z M 179.898438 235.640625 C 182.617188 236.835938 182.726562 237.21875 182.128906 243.523438 C 181.804688 247.113281 181.042969 256.683594 180.390625 264.785156 C 179.792969 272.832031 177.941406 287.023438 176.3125 296.324219 L 173.375 313.179688 L 166.035156 313.503906 C 162.011719 313.667969 158.695312 313.503906 158.695312 313.125 C 158.695312 312.742188 161.414062 304.535156 164.785156 294.855469 C 170.277344 278.921875 176.09375 248.472656 176.09375 235.75 C 176.09375 234.007812 176.367188 234.007812 179.898438 235.640625 Z M 213.015625 254.726562 C 215.296875 273.375 216.058594 276.75 221.878906 294.039062 C 225.410156 304.425781 228.292969 313.125 228.292969 313.34375 C 228.292969 313.558594 224.976562 313.722656 220.898438 313.722656 L 213.503906 313.722656 L 210.078125 292.789062 C 208.175781 281.261719 206.378906 266.960938 206 260.980469 C 205.671875 255 205.128906 247.058594 204.75 243.308594 C 204.097656 236.511719 205.019531 234.933594 209.859375 234.390625 C 210.242188 234.390625 211.65625 243.523438 213.015625 254.726562 Z M 191.320312 275.660156 L 191.320312 313.722656 L 184.25 313.722656 C 175.820312 313.722656 176.203125 315.355469 179.953125 294.691406 C 181.964844 283.546875 185.554688 249.070312 185.882812 237.871094 C 185.882812 237.707031 187.132812 237.597656 188.601562 237.597656 L 191.320312 237.597656 Z M 201.105469 238.414062 C 201.214844 247.710938 205.019531 284.359375 207.085938 295.726562 C 208.554688 304.042969 209.804688 311.546875 209.804688 312.308594 C 209.804688 313.34375 207.738281 313.722656 202.195312 313.722656 L 194.582031 313.722656 L 194.582031 276.367188 C 194.582031 255.867188 194.90625 238.742188 195.289062 238.304688 C 196.320312 237.328125 201.105469 237.382812 201.105469 238.414062 Z M 110.84375 239.664062 C 110.84375 240.207031 109.429688 243.796875 107.746094 247.601562 L 104.589844 254.5625 L 86.484375 265.765625 C 76.480469 271.964844 68.160156 276.800781 67.941406 276.585938 C 67.726562 276.367188 70.824219 270.65625 74.792969 263.914062 L 82.027344 251.628906 L 95.621094 245.210938 C 110.082031 238.414062 110.84375 238.140625 110.84375 239.664062 Z M 291.148438 245.320312 L 305.179688 251.898438 L 312.355469 264.351562 C 316.324219 271.148438 319.207031 276.75 318.71875 276.75 C 318.285156 276.75 309.910156 271.746094 300.066406 265.601562 L 282.289062 254.453125 L 278.699219 246.570312 C 274.402344 237.054688 273.75 237.109375 291.148438 245.320312 Z M 98.992188 267.777344 L 95.890625 275.117188 L 73.21875 291.648438 C 60.710938 300.726562 50.324219 307.960938 50.109375 307.742188 C 49.617188 307.199219 60.222656 288.601562 62.777344 285.503906 C 64.460938 283.492188 99.480469 260.761719 101.273438 260.542969 C 101.710938 260.488281 100.675781 263.753906 98.992188 267.777344 Z M 307.570312 274.246094 L 324.320312 284.90625 L 330.789062 296.160156 C 334.324219 302.304688 337.042969 307.578125 336.824219 307.796875 C 335.085938 309.535156 291.042969 275.007812 288.976562 270.386719 C 283.753906 258.316406 281.960938 257.933594 307.570312 274.246094 Z M 307.570312 274.246094 " fill-opacity="1" fill-rule="nonzero"/><g fill="#ffffff" fill-opacity="1"><g transform="translate(188.490374, 200.149981)"><g><path d="M 9.171875 -0.265625 C 9.171875 -0.273438 9.164062 -0.28125 9.15625 -0.28125 L 9.15625 -0.296875 C 9.125 -0.335938 9.09375 -0.375 9.0625 -0.40625 C 9.03125 -0.445312 8.992188 -0.488281 8.953125 -0.53125 L 5.453125 -5.84375 L 7.671875 -9.140625 C 7.710938 -9.203125 7.738281 -9.242188 7.75 -9.265625 C 7.789062 -9.328125 7.828125 -9.382812 7.859375 -9.4375 C 7.898438 -9.5 7.941406 -9.554688 7.984375 -9.609375 L 7.984375 -9.625 C 7.992188 -9.625 8 -9.628906 8 -9.640625 L 8.015625 -9.671875 C 8.046875 -9.703125 8.066406 -9.726562 8.078125 -9.75 C 8.085938 -9.769531 8.113281 -9.800781 8.15625 -9.84375 L 8.15625 -9.859375 C 8.175781 -9.878906 8.1875 -9.894531 8.1875 -9.90625 L 8.234375 -9.953125 C 8.335938 -10.085938 8.414062 -10.15625 8.46875 -10.15625 L 8.484375 -10.15625 L 8.484375 -10.3125 L 7.65625 -10.3125 L 7.65625 -10.15625 L 7.671875 -10.15625 C 7.691406 -10.15625 7.691406 -10.132812 7.671875 -10.09375 C 7.660156 -10.0625 7.625 -9.988281 7.5625 -9.875 C 7.5625 -9.851562 7.507812 -9.773438 7.40625 -9.640625 C 7.320312 -9.503906 7.222656 -9.335938 7.109375 -9.140625 L 5.234375 -6.203125 L 2.859375 -9.796875 C 2.816406 -9.878906 2.785156 -9.9375 2.765625 -9.96875 L 2.75 -9.984375 L 2.734375 -10.015625 L 2.734375 -10.0625 L 2.71875 -10.078125 L 2.6875 -10.078125 C 2.6875 -10.097656 2.679688 -10.113281 2.671875 -10.125 L 2.671875 -10.140625 L 2.6875 -10.15625 L 2.6875 -10.3125 L 0.765625 -10.3125 L 0.765625 -10.15625 L 0.78125 -10.15625 C 0.84375 -10.15625 0.910156 -10.082031 0.984375 -9.9375 C 1.003906 -9.925781 1.03125 -9.894531 1.0625 -9.84375 C 1.082031 -9.800781 1.101562 -9.769531 1.125 -9.75 L 1.21875 -9.609375 C 1.3125 -9.492188 1.414062 -9.335938 1.53125 -9.140625 L 4.3125 -4.921875 L 1.515625 -0.71875 C 1.472656 -0.65625 1.429688 -0.59375 1.390625 -0.53125 C 1.347656 -0.476562 1.304688 -0.425781 1.265625 -0.375 L 1.21875 -0.328125 C 1.21875 -0.316406 1.207031 -0.300781 1.1875 -0.28125 C 1.125 -0.195312 1.078125 -0.15625 1.046875 -0.15625 L 1.03125 -0.15625 L 1.03125 0 L 1.828125 0 L 1.828125 -0.15625 L 1.8125 -0.15625 C 1.78125 -0.15625 1.816406 -0.25 1.921875 -0.4375 C 1.960938 -0.5 2 -0.5625 2.03125 -0.625 C 2.070312 -0.695312 2.113281 -0.765625 2.15625 -0.828125 C 2.207031 -0.910156 2.257812 -1 2.3125 -1.09375 C 2.375 -1.1875 2.445312 -1.289062 2.53125 -1.40625 L 4.546875 -4.5625 L 6.796875 -1.171875 L 6.78125 -1.171875 C 7.070312 -0.753906 7.242188 -0.484375 7.296875 -0.359375 C 7.398438 -0.222656 7.429688 -0.15625 7.390625 -0.15625 L 7.375 -0.15625 L 7.375 0 L 9.3125 0 L 9.3125 -0.15625 L 9.296875 -0.15625 L 9.265625 -0.1875 C 9.242188 -0.207031 9.21875 -0.226562 9.1875 -0.25 Z M 9.171875 -0.265625 "/></g></g></g></svg>